mtllib new-0.mtl
v -0.307990 -0.915703 -0.289848
v -0.295349 -0.884101 0.321131
v 0.302990 -0.915703 -0.289848
v -0.276387 -0.880941 -0.289848
v -0.307990 -0.915703 0.321131
v 0.302990 -0.915703 0.321131
vn 0.000000 1.000000 0.000000
vn 0.000000 0.000000 1.000000
vn 0.000000 -1.000000 0.000000
vn 0.000000 0.000000 -1.000000
usemtl material-0
f 2//2 5//2 6//2
usemtl material-1
f 3//2 4//2 1//2
f 6//4 5//4 2//4
f 3//1 1//1 6//1
f 5//1 6//1 1//1
usemtl material-2
f 1//4 4//4 3//4
f 6//3 1//3 3//3
f 1//3 6//3 5//3